<?xml version="1.0" standalone="no"?>
<!DOCTYPE svg PUBLIC "-//W3C//DTD SVG 20010904//EN"
 "http://www.w3.org/TR/2001/REC-SVG-20010904/DTD/svg10.dtd">
<svg version="1.0" xmlns="http://www.w3.org/2000/svg"
 width="512.000000pt" height="512.000000pt" viewBox="0 0 512.000000 512.000000"
 preserveAspectRatio="xMidYMid meet">

<g transform="translate(0.000000,512.000000) scale(0.100000,-0.100000)"
fill="#000000" stroke="none">
<path d="M636 4413 c-27 -2 -59 -11 -70 -19 -11 -8 -30 -14 -42 -14 -24 0
-144 -111 -144 -133 0 -8 -9 -43 -20 -78 -20 -63 -20 -85 -18 -1661 2 -1261 6
-1600 15 -1610 7 -6 13 -22 13 -34 0 -12 9 -33 20 -47 11 -14 20 -29 20 -34 0
-16 105 -113 123 -113 9 0 22 -9 29 -20 7 -11 22 -20 34 -20 11 0 29 -9 39
-20 12 -13 31 -20 54 -20 20 -1 47 -7 61 -15 21 -12 298 -14 1932 -15 l1907 0
41 21 c22 12 51 35 65 52 14 18 30 38 36 45 6 7 14 39 19 70 5 31 13 81 19
111 8 37 11 537 11 1571 0 1307 -2 1519 -14 1529 -8 7 -17 25 -21 40 -7 33
-58 91 -79 91 -8 0 -19 7 -24 16 -6 11 -35 19 -91 26 -46 6 -84 16 -87 22 -8
23 -24 62 -33 76 -4 8 -19 36 -32 63 -13 26 -26 47 -30 47 -3 0 -16 9 -29 20
-13 11 -31 20 -41 20 -10 0 -25 8 -35 18 -17 16 -116 17 -1798 18 -980 0
-1803 -1 -1830 -3z m3567 -222 c22 -9 45 -27 56 -47 19 -33 20 -70 23 -1653 3
-1565 4 -1620 22 -1640 24 -27 15 -49 -26 -56 -18 -3 -823 -4 -1788 -3 l-1755
3 -69 37 c-80 43 -98 59 -137 112 l-29 39 0 1560 0 1561 26 38 c15 21 34 38
43 38 9 0 34 7 56 15 59 21 3520 17 3578 -4z m380 -299 l27 -28 -2 -1450 c-3
-1174 -6 -1460 -17 -1509 -7 -33 -15 -70 -17 -81 -4 -23 -41 -38 -67 -29 -7 3
-22 23 -33 43 -18 36 -19 82 -22 1547 -1 831 0 1516 3 1523 3 7 23 12 53 12
40 0 53 -5 75 -28z"/>
<path d="M930 3995 c-14 -8 -32 -14 -41 -15 -24 0 -73 -49 -95 -95 -18 -38
-19 -68 -19 -555 0 -514 0 -515 22 -560 30 -59 61 -87 106 -95 21 -4 40 -11
43 -16 3 -5 218 -9 488 -9 410 0 488 2 512 15 16 8 36 15 45 15 22 0 89 77 89
102 0 10 7 32 15 48 13 26 15 96 12 507 -2 442 -4 482 -22 528 -10 28 -25 56
-32 63 -7 7 -13 17 -13 22 0 5 -17 14 -37 21 -21 6 -47 18 -58 25 -30 21 -979
20 -1015 -1z"/>
<path d="M2556 3953 c-20 -21 -25 -37 -24 -77 1 -53 13 -81 50 -116 21 -20 30
-20 719 -20 l698 0 25 25 c31 31 45 97 31 153 -6 24 -17 47 -25 52 -9 6 -311
10 -732 10 l-717 0 -25 -27z"/>
<path d="M2595 3430 c-8 -3 -26 -20 -40 -39 -36 -50 -35 -125 1 -169 l27 -32
717 0 c804 0 734 -7 758 74 14 48 -2 117 -33 146 -21 20 -39 20 -719 23 -383
1 -703 0 -711 -3z"/>
<path d="M2598 2852 c-16 -2 -28 -7 -28 -12 0 -5 -8 -16 -17 -25 -10 -11 -17
-37 -19 -70 -3 -57 15 -89 63 -114 15 -8 220 -11 706 -11 780 0 732 -5 754 80
9 35 10 57 3 70 -6 10 -10 27 -10 38 0 11 -6 24 -13 31 -9 7 -224 11 -713 13
-384 2 -711 2 -726 0z"/>
<path d="M780 2294 c-38 -34 -40 -40 -40 -93 0 -43 5 -60 19 -73 10 -8 20 -21
22 -27 6 -16 3182 -16 3188 0 2 6 14 21 27 32 18 16 24 31 24 64 0 37 -6 50
-41 88 l-42 45 -1558 0 -1559 0 -40 -36z"/>
<path d="M1422 1782 l-633 -2 -14 -34 c-8 -19 -19 -37 -25 -41 -17 -11 -10
-68 14 -110 l23 -40 641 -3 c641 -2 642 -2 663 19 42 42 23 197 -26 211 -5 2
-295 2 -643 0z"/>
<path d="M2515 1753 c-13 -7 -26 -22 -30 -33 -3 -11 -11 -20 -16 -20 -5 0 -9
-24 -9 -52 1 -44 5 -57 28 -79 15 -14 36 -29 46 -33 10 -3 329 -6 708 -6 776
0 724 -5 753 78 15 45 15 49 -7 94 -15 31 -30 49 -46 53 -14 3 -335 7 -714 8
-534 2 -694 -1 -713 -10z"/>
<path d="M807 1206 c-52 -23 -86 -125 -53 -158 7 -8 16 -23 20 -35 4 -12 18
-24 32 -27 14 -4 300 -7 635 -6 623 0 653 2 663 39 11 42 14 90 8 126 -6 33
-14 43 -42 57 -32 17 -83 18 -635 17 -451 0 -607 -4 -628 -13z"/>
<path d="M2485 1160 c-14 -23 -25 -54 -25 -74 0 -39 33 -101 60 -116 30 -16
1412 -13 1432 3 8 6 26 33 38 58 21 45 22 48 6 79 -9 18 -16 39 -16 46 0 7 -7
20 -16 28 -14 14 -94 16 -735 16 l-719 0 -25 -40z"/>
</g>
</svg>
